<?xml version="1.0" encoding="UTF-8" standalone="no"?>
<!-- Created with Inkscape (http://www.inkscape.org/) -->

<svg
   width="500"
   height="500"
   viewBox="0 0 132.29167 132.29167"
   version="1.1"
   id="svg830"
   sodipodi:docname="icon_kurage.svg"
   inkscape:version="1.1 (c68e22c387, 2021-05-23)"
   inkscape:export-filename="C:\Users\s142709\Desktop\あいこんupd.png"
   inkscape:export-xdpi="96"
   inkscape:export-ydpi="96"
   xmlns:inkscape="http://www.inkscape.org/namespaces/inkscape"
   xmlns:sodipodi="http://sodipodi.sourceforge.net/DTD/sodipodi-0.dtd"
   xmlns:xlink="http://www.w3.org/1999/xlink"
   xmlns="http://www.w3.org/2000/svg"
   xmlns:svg="http://www.w3.org/2000/svg">
  <sodipodi:namedview
     id="namedview832"
     pagecolor="#505050"
     bordercolor="#ffffff"
     borderopacity="1"
     inkscape:pageshadow="0"
     inkscape:pageopacity="0"
     inkscape:pagecheckerboard="1"
     inkscape:document-units="mm"
     showgrid="false"
     units="px"
     inkscape:snap-global="false"
     inkscape:zoom="0.52410025"
     inkscape:cx="223.23973"
     inkscape:cy="187.94114"
     inkscape:window-width="1036"
     inkscape:window-height="1017"
     inkscape:window-x="876"
     inkscape:window-y="-8"
     inkscape:window-maximized="0"
     inkscape:current-layer="layer1" />
  <defs
     id="defs827">
    <linearGradient
       inkscape:collect="always"
       id="linearGradient6833">
      <stop
         style="stop-color:#5fd3bc;stop-opacity:1;"
         offset="0"
         id="stop6829" />
      <stop
         style="stop-color:#8f8f8f;stop-opacity:1"
         offset="1"
         id="stop6831" />
    </linearGradient>
    <inkscape:path-effect
       effect="fill_between_many"
       method="originald"
       linkedpaths="#path5340,0,1|"
       id="path-effect6594"
       join="true"
       close="true"
       autoreverse="true" />
    <linearGradient
       inkscape:collect="always"
       xlink:href="#linearGradient6833"
       id="linearGradient6837"
       x1="67.269066"
       y1="12.613788"
       x2="67.269066"
       y2="182.74266"
       gradientUnits="userSpaceOnUse"
       gradientTransform="matrix(0.94117645,0,0,0.94117645,3.1774812,4.0535152)" />
  </defs>
  <g
     inkscape:label="レイヤー 1"
     inkscape:groupmode="layer"
     id="layer1"
     style="opacity:1">
    <ellipse
       style="fill:url(#linearGradient6837);fill-opacity:1;fill-rule:evenodd;stroke:none;stroke-width:10.5877;stroke-linejoin:round;stroke-miterlimit:64.4;stroke-dasharray:none;stroke-opacity:1"
       id="path6692"
       cx="66.133186"
       cy="68.665565"
       rx="52.502682"
       ry="52.25848" />
    <path
       id="path2064"
       style="opacity:1;fill:#2d9371;fill-opacity:0.94999999;fill-rule:evenodd;stroke-width:3.77952;stroke-linejoin:round;stroke-miterlimit:64.4"
       d="m 66.736558,13.360714 c -25.896,-0.276795 -48.513032,17.461573 -54.415283,42.677498 -5.9022368,25.215989 6.769814,62.356368 29.821437,62.394638 4.741742,0.008 6.446316,-8.08011 6.176883,-12.8142 C 47.51883,91.548779 25.771226,85.051532 25.759215,69.863207 25.771328,50.132914 40.391258,33.376782 60.14988,30.447525 v 14.724684 h 4.818827 V 30.072872 c 0.391924,-0.03615 0.784362,-0.06665 1.177189,-0.09147 0.709662,0.03665 1.41822,0.09179 2.124935,0.165365 v 15.025441 h 4.818827 V 30.620642 c 19.316628,3.329192 33.420602,19.879064 33.442922,39.242565 -4.9e-4,15.508228 -22.299577,21.847744 -23.342247,36.154903 -0.343925,4.71922 1.15823,12.82271 5.889046,12.916 C 112.12652,119.38858 125.58932,82.527431 120.22735,57.191113 114.86523,31.854915 92.632479,13.63738 66.736558,13.360714 Z m 0.464055,3.646289 c 0.359593,0.0056 0.7137,0.02393 1.070218,0.03669 v 8.861992 c -1.100542,-0.05028 -2.201124,-0.06606 -3.302124,-0.03824 v -8.829953 c 0.74522,-0.01314 1.498563,-0.04192 2.231906,-0.03049 z M 60.14988,17.346 v 8.90695 c -0.52582,0.06819 -1.054349,0.112808 -1.577681,0.198954 -0.0029,-4e-6 -0.0059,-4e-6 -0.0088,0 -4.631624,0.772985 -9.133335,2.248702 -13.309783,4.373893 -0.0022,0.0014 -0.0045,0.0027 -0.0067,0.0041 -4.126128,2.108333 -7.902688,4.839402 -11.184852,8.068269 -0.0043,0.0045 -0.0086,0.0089 -0.01291,0.01344 -3.282384,3.264697 -6.048341,7.021875 -8.164876,11.122835 -0.0031,0.0065 -0.0062,0.01308 -0.0093,0.01963 -2.145675,4.231053 -3.633451,8.807947 -4.289144,13.537676 -3.17e-4,0.0024 -0.0023,0.0039 -0.0026,0.0062 -0.656959,4.548677 -0.553089,9.187733 0.287321,13.697873 0.834984,4.538515 2.414303,8.929299 4.648296,12.974402 2.65e-4,5.29e-4 -2.64e-4,0.0016 0,0.0021 l 0.0021,0.0021 c 2.20976,4.012837 5.070864,7.627646 8.37003,10.761618 0.0087,0.008 0.01752,0.0159 0.02635,0.0238 2.405022,2.23373 5.116848,4.11999 7.962304,5.80017 l -2.879926,5.88129 c -2.194697,-1.24978 -4.324612,-2.59104 -6.282822,-4.1367 -0.0096,-0.007 -0.01925,-0.0149 -0.02894,-0.0222 -3.495918,-2.69721 -6.617985,-5.89787 -9.340557,-9.422229 -2.242042,-2.996234 -4.193175,-6.166443 -5.708179,-9.495028 -0.0044,-0.01019 -0.0089,-0.02035 -0.01343,-0.03049 -1.890536,-4.042145 -3.20759,-8.365831 -3.984253,-12.7925 -6.09e-4,-0.0036 6.09e-4,-0.0072 0,-0.01085 C 13.940935,72.636395 13.749805,68.367118 14.10461,64.14577 l -0.0021,0.0047 c 0.340744,-3.987895 1.143424,-7.937466 2.407605,-11.723314 0.0014,-0.0059 0.0028,-0.01171 0.0041,-0.01757 1.381504,-4.215471 3.367067,-8.255746 5.819799,-12.016837 2.381519,-3.569028 5.172202,-6.858225 8.336442,-9.729121 l 0.0041,-0.0047 c 2.969422,-2.705761 6.267749,-5.07221 9.792684,-7.02696 0.0031,-0.0022 0.0062,-0.0045 0.0093,-0.0067 3.947946,-2.207411 8.219564,-3.881109 12.641091,-5.017782 2.296485,-0.579941 4.648631,-0.985697 7.032127,-1.261421 z m 12.939778,0.131775 c 3.867727,0.508508 7.687906,1.432612 11.362098,2.775025 5.29e-4,2.43e-4 0.0019,-2.45e-4 0.0026,0 4.015611,1.492506 7.8426,3.448947 11.353829,5.844086 0.0029,0.0016 0.0059,0.0031 0.0088,0.0047 3.276404,2.218912 6.294895,4.832244 8.982405,7.739062 3.05605,3.304619 5.6558,7.033744 7.77523,11.026717 1.7565,3.449402 3.18628,7.016482 4.10673,10.66705 0.005,0.02193 0.0101,0.04381 0.0155,0.06563 0.87761,3.201008 1.38707,6.533517 1.5813,9.860896 v 0.0041 c 0.5621,9.405716 -1.64943,19.080557 -6.19807,27.322881 -0.002,0.0036 -0.005,0.0072 -0.007,0.01085 -4.7105,8.607538 -12.111476,15.705998 -20.801832,20.413738 l -2.679422,-5.78259 c 0.321611,-0.18006 0.557675,-0.26147 0.893484,-0.47801 3.864861,-2.24328 7.27324,-5.0878 10.238134,-8.252208 0.01885,-0.01941 0.03745,-0.03905 0.05581,-0.05891 2.510636,-2.814886 4.757176,-5.932678 6.514336,-9.367901 2.16373,-4.150675 3.61044,-8.630549 4.32532,-13.217281 6.7e-4,-0.0022 0.001,-0.0045 0.002,-0.0067 0.69749,-4.540374 0.64701,-9.169188 -0.11162,-13.682368 -10e-4,-0.0079 -0.003,-0.01587 -0.004,-0.02379 -0.80929,-4.600776 -2.35632,-9.072465 -4.5992,-13.202296 v -5.29e-4 -5.29e-4 -5.29e-4 -5.29e-4 -5.3e-4 c -2.1914,-4.029837 -5.02321,-7.702912 -8.356604,-10.872721 -0.0021,-0.0016 -0.0041,-0.0031 -0.0062,-0.0047 -3.386047,-3.20399 -7.271826,-5.875953 -11.485737,-7.907953 -0.0029,-0.0016 -0.0059,-0.0031 -0.0088,-0.0047 -4.086174,-1.95422 -8.465923,-3.290477 -12.959416,-3.975463 z"
       sodipodi:nodetypes="ccaacccccccccccaaccsccccscccccccccccccccccccccccccccccccccccccccccccccccccccccccccccccccccccccccccc" />
    <path
       inkscape:original-d="M -150.41107,48.675922"
       inkscape:path-effect="#path-effect6594"
       d="m 66.474323,40.063961 a 8.2103364,13.284604 0 0 0 -8.21035,13.284977 8.2103364,13.284604 0 0 0 0.9772,6.275586 13.284604,8.2103364 0 0 0 -6.62285,-1.093472 13.284604,8.2103364 0 0 0 -13.28395,8.210351 13.284604,8.2103364 0 0 0 13.28395,8.210351 13.284604,8.2103364 0 0 0 5.98671,-0.883668 8.2103364,13.284604 0 0 0 -0.34106,3.771863 8.2103364,13.284604 0 0 0 8.21035,13.284462 8.2103364,13.284604 0 0 0 8.21035,-13.284462 8.2103364,13.284604 0 0 0 -0.37156,-3.950145 13.284604,8.2103364 0 0 0 6.51847,1.06195 13.284604,8.2103364 0 0 0 13.28498,-8.210351 13.284604,8.2103364 0 0 0 -13.28498,-8.210351 13.284604,8.2103364 0 0 0 -7.20163,1.316714 8.2103364,13.284604 0 0 0 1.05472,-6.498828 8.2103364,13.284604 0 0 0 -8.21035,-13.284977 z"
       id="path6596"
       style="display:inline;fill:#5fd3bc" />
    <path
       id="path5340"
       style="fill:#b7e8d8;fill-opacity:1;fill-rule:evenodd;stroke-width:1;stroke-linejoin:round;stroke-miterlimit:64.4"
       d="m 66.474323,40.063961 a 8.2103364,13.284604 0 0 0 -8.21035,13.284977 8.2103364,13.284604 0 0 0 0.9772,6.275586 13.284604,8.2103364 0 0 0 -6.62285,-1.093472 13.284604,8.2103364 0 0 0 -13.28395,8.210351 13.284604,8.2103364 0 0 0 13.28395,8.210351 13.284604,8.2103364 0 0 0 5.98671,-0.883668 8.2103364,13.284604 0 0 0 -0.34106,3.771863 8.2103364,13.284604 0 0 0 8.21035,13.284462 8.2103364,13.284604 0 0 0 8.21035,-13.284462 8.2103364,13.284604 0 0 0 -0.37156,-3.950145 13.284604,8.2103364 0 0 0 6.51847,1.06195 13.284604,8.2103364 0 0 0 13.28498,-8.210351 13.284604,8.2103364 0 0 0 -13.28498,-8.210351 13.284604,8.2103364 0 0 0 -7.20163,1.316714 8.2103364,13.284604 0 0 0 1.05472,-6.498828 8.2103364,13.284604 0 0 0 -8.21035,-13.284977 z m 0.0496,4.997627 a 6.6031456,10.684114 0 0 1 6.60269,10.684621 6.6031456,10.684114 0 0 1 -0.84801,5.226552 10.684114,6.6031456 0 0 1 5.7919,-1.058849 10.684114,6.6031456 0 0 1 10.68462,6.602698 10.684114,6.6031456 0 0 1 -10.68462,6.603214 10.684114,6.6031456 0 0 1 -5.24258,-0.853694 6.6031456,10.684114 0 0 1 0.29869,3.176551 6.6031456,10.684114 0 0 1 -6.60269,10.684102 6.6031456,10.684114 0 0 1 -6.60322,-10.684102 6.6031456,10.684114 0 0 1 0.27389,-3.033408 10.684114,6.6031456 0 0 1 -4.8147,0.710551 10.684114,6.6031456 0 0 1 -10.6841,-6.603214 10.684114,6.6031456 0 0 1 10.6841,-6.602698 10.684114,6.6031456 0 0 1 5.32629,0.879017 6.6031456,10.684114 0 0 1 -0.78548,-5.04672 6.6031456,10.684114 0 0 1 6.60322,-10.684621 z" />
    <circle
       style="opacity:1;fill:#32b59b;fill-opacity:1;fill-rule:evenodd;stroke:none;stroke-width:10.944;stroke-linejoin:round;stroke-miterlimit:64.4;stroke-dasharray:none;stroke-opacity:1"
       id="path13454"
       cx="53.724159"
       cy="66.675003"
       r="5.3545671" />
    <circle
       style="fill:#32b59b;fill-opacity:1;fill-rule:evenodd;stroke:none;stroke-width:10.944;stroke-linejoin:round;stroke-miterlimit:64.4;stroke-dasharray:none;stroke-opacity:1"
       id="path13454-2"
       cx="79.783051"
       cy="66.675003"
       r="5.3545671" />
    <circle
       style="fill:#32b59b;fill-opacity:1;fill-rule:evenodd;stroke:none;stroke-width:10.944;stroke-linejoin:round;stroke-miterlimit:64.4;stroke-dasharray:none;stroke-opacity:1"
       id="path13454-2-6"
       cx="66.675003"
       cy="53.367188"
       r="5.3545671" />
    <circle
       style="fill:#32b59b;fill-opacity:1;fill-rule:evenodd;stroke:none;stroke-width:10.944;stroke-linejoin:round;stroke-miterlimit:64.4;stroke-dasharray:none;stroke-opacity:1"
       id="path13454-2-3"
       cx="66.675003"
       cy="78.501595"
       r="5.3545671" />
  </g>
  <path
     id="path856"
     style="fill:#2d9371;fill-opacity:0.103529;fill-rule:evenodd;stroke-width:11.3382;stroke-linejoin:round;stroke-miterlimit:64.4"
     d="M 66.234198,19.340938 C 38.163121,19.34111 15.406987,41.547991 15.406811,68.94101 c -7.5e-5,16.734604 8.49314,31.5324 21.502048,40.51536 a 34.328674,30.03759 0 0 1 3.05821,-3.90364 C 28.157622,97.469572 20.435948,84.086223 20.435962,68.94101 20.435939,44.258507 40.94073,24.249143 66.234198,24.249166 c 25.293468,-1.8e-5 45.797742,20.009344 45.797722,44.691844 1e-5,14.924939 -7.49877,28.138815 -19.018476,36.25567 a 34.328674,30.03759 0 0 1 3.118154,3.85609 C 108.81612,100.03407 117.06218,85.428502 117.0621,68.94101 117.06192,41.547788 94.305487,19.340821 66.234198,19.340938 Z" />
</svg>
